# xmcd
#
# Track frame offsets: 
#        150
#        19487
#        34538
#        53363
#        73245
#        91260
#        107059
#        127140
#        148935
#        167738
#        181350
#        199260
#        216300
#        238673
#        255551
#
# Disc length: 3657 seconds
#
# Revision: 0
# Processed by: cddbd v1.5.2PL0 Copyright (c) Steve Scherf et al.
# Submitted via: ExactAudioCopy v1.0b3
#
DISCID=e00e470f
DTITLE=Prinz Pi - Kompass ohne Norden (Premium Edition)
DYEAR=1900
DGENRE=Hip-Hop
TTITLE0=Fähnchen im Wind (instrumental)
TTITLE1=Moderne Zeiten (instrumental)
TTITLE2=Kompass ohne Norden (instrumental)
TTITLE3=Frühstücksclub der toten Dichter (instrumental)
TTITLE4=Prinz Pi feat. Casper - 100x (instrumental)
TTITLE5=Glück (instrumental)
TTITLE6=Säulen der Gesellschaft (instrumental)
TTITLE7=Rost (instrumental)
TTITLE8=Ende Blut, alles Blut (instrumental)
TTITLE9=Schwarze Wolke (instrumental)
TTITLE10=Die letzte Ex (instrumental)
TTITLE11=Asoziale Kontakte (instrumental)
TTITLE12=Unser Platz (instrumental)
TTITLE13=Schiefe Pyramiden (instrumental)
TTITLE14=Dumm (instrumental)
EXTD=
EXTT0=
EXTT1=
EXTT2=
EXTT3=
EXTT4=
EXTT5=
EXTT6=
EXTT7=
EXTT8=
EXTT9=
EXTT10=
EXTT11=
EXTT12=
EXTT13=
EXTT14=
PLAYORDER=
